<?xml version="1.0" encoding="UTF-8" standalone="no"?>
<svg xmlns="http://www.w3.org/2000/svg"
width="100%"
height="100%" 
viewBox="0 0 200 150"
preserveAspectRatio="xMidYMid meet">

  <style type="text/css">
    <![CDATA[
        .curve {fill:none; fill-opacity:1; stroke:#000066; stroke-width:20; stroke-miterlimit:4; stroke-opacity:1; stroke-dasharray:none}
        .undercurve {fill:#A8B6FF; fill-opacity:1; stroke:#A8B6FF; stroke-width:20; stroke-miterlimit:4; stroke-opacity:1; stroke-dasharray:none}
        .t {font-size:36px; font-style:normal; font-variant:normal; font-weight:bold; font-stretch:normal; line-height:125%; letter-spacing:.25px; word-spacing:0px; fill:#000000; fill-opacity:1; stroke:none; font-family:Helvetica, sans-serif}
    ]]>
  </style>
  
    <g id="curvea" transform="translate(26,0)">
    <title>Regression Cloud</title>
	<path class="undercurve" d="M 130 131,130 57.1089,130 57.9804,130.5 58.8631,131 59.7566,131.5 60.6607,132 61.5749,132.5 62.4991,133 63.4327,133.5 64.3755,134 65.3270,134.5 66.2869,135 67.2548,135.5 68.2302,136 69.2127,136.5 70.2018,137 71.1971,137.5 72.1982,138 73.2045,138.5 74.2156,139 75.2308,139.5 76.2499,140 77.2721,140.5 78.2969,141 79.3239,141.5 80.3525,142 81.3820,142.5 82.4120,143 83.4418,143.5 84.4709,144 85.4986,144.5 86.5245,145 87.5479,145.5 88.5681,146 89.5847,146.5 90.5969,147 91.6043,147.5 92.6061,148 93.6019,148.5 94.5910,149 95.5729,149.5 96.5469,150 97.5125,150.5 98.4691,151 99.4163,151.5 100.3533,152 101.2798,152.5 102.1952,153 103.0989,153.5 103.9906,154 104.8697,154.5 105.7358,155 106.5885,155.5 107.4273,156 108.2518,156.5 109.0618,157 109.8567,157.5 110.6364,158 111.4004,158.5 112.1486,159 112.8806,159.5 113.5963,160 114.2954,160.5 114.9778,161 115.6433,161.5 116.2917,162 116.9230,162.5 117.5372,163 118.1341,163.5 118.7138,164 119.2762,164.5 119.8214,165 120.3495,165.5 120.8605,166 121.3545,166.5 121.8317,167 122.2922,167.5 122.7362,168 123.1639,168.5 123.5755,169 123.9712,169.5 124.3513,170 124.7161,170.5 125.0658,171 125.4007,171.5 125.7212,172 126.0276,172.5 126.3202,173 126.5993,173.5 126.8654,174 127.1187,174.5 127.3597,175 127.5887,175.5 127.8061,176 128.0122,176.5 128.2076,177 128.3924,177.5 128.5672,178 128.7323,178.5 128.8881,179 129.0349,179.5 129.1732,180 129.3033,180.5 129.4255,181 129.5402,181.5 129.6478,182 129.7486,182.5 129.8430,183 129.9312,183.5 130.0135,184 130.0903,184.5 130.1620,185 130.2286,185.5 130.2906,186 130.3482,186.5 130.4017,187 130.4513,187.5 130.4972,188 130.5397,188.5 130.5790,189 130.6153,189.5 130.6487,190 130.6795,190.5 130.7079,191 130.7340,191.5 130.7580,192 130.7800,192.5 130.8002,193 130.8187,193.5 130.8356,194 130.8511,194.5 130.8652,195 130.8781,195.5 130.8899,196 130.9006,196.5 130.9103,197 130.9192,197.5 130.9272,198 130.9345,198.5 130.9411,199 130.9471,199.5 130.9525,200 130.9574,201 130.9618,202 131 Z"/>
	<path class="curve" d="M 0 131,0.5 130.9618,1 130.9574,1.5 130.9525,2 130.9471,2.5 130.9411,3 130.9345,3.5 130.9272,4 130.9192,4.5 130.9103,5 130.9006,5.5 130.8899,6 130.8781,6.5 130.8652,7 130.8511,7.5 130.8356,8 130.8187,8.5 130.8002,9 130.7800,9.5 130.7580,10 130.7340,10.5 130.7079,11 130.6795,11.5 130.6487,12 130.6153,12.5 130.5790,13 130.5397,13.5 130.4972,14 130.4513,14.5 130.4017,15 130.3482,15.5 130.2906,16 130.2286,16.5 130.1620,17 130.0903,17.5 130.0135,18 129.9312,18.5 129.8430,19 129.7486,19.5 129.6478,20 129.5402,20.5 129.4255,21 129.3033,21.5 129.1732,22 129.0349,22.5 128.8881,23 128.7323,23.5 128.5672,24 128.3924,24.5 128.2076,25 128.0122,25.5 127.8061,26 127.5887,26.5 127.3597,27 127.1187,27.5 126.8654,28 126.5993,28.5 126.3202,29 126.0276,29.5 125.7212,30 125.4007,30.5 125.0658,31 124.7161,31.5 124.3513,32 123.9712,32.5 123.5755,33 123.1639,33.5 122.7362,34 122.2922,34.5 121.8317,35 121.3545,35.5 120.8605,36 120.3495,36.5 119.8214,37 119.2762,37.5 118.7138,38 118.1341,38.5 117.5372,39 116.9230,39.5 116.2917,40 115.6433,40.5 114.9778,41 114.2954,41.5 113.5963,42 112.8806,42.5 112.1486,43 111.4004,43.5 110.6364,44 109.8567,44.5 109.0618,45 108.2518,45.5 107.4273,46 106.5885,46.5 105.7358,47 104.8697,47.5 103.9906,48 103.0989,48.5 102.1952,49 101.2798,49.5 100.3533,50 99.4163,50.5 98.4691,51 97.5125,51.5 96.5469,52 95.5729,52.5 94.5910,53 93.6019,53.5 92.6061,54 91.6043,54.5 90.5969,55 89.5847,55.5 88.5681,56 87.5479,56.5 86.5245,57 85.4986,57.5 84.4709,58 83.4418,58.5 82.4120,59 81.3820,59.5 80.3525,60 79.3239,60.5 78.2969,61 77.2721,61.5 76.2499,62 75.2308,62.5 74.2156,63 73.2045,63.5 72.1982,64 71.1971,64.5 70.2018,65 69.2127,65.5 68.2302,66 67.2548,66.5 66.2869,67 65.3270,67.5 64.3755,68 63.4327,68.5 62.4991,69 61.5749,69.5 60.6607,70 59.7566,70.5 58.8631,71 57.9804,71.5 57.1089,72 56.2488,72.5 55.4005,73 54.5642,73.5 53.7401,74 52.9285,74.5 52.1296,75 51.3436,75.5 50.5709,76 49.8114,76.5 49.0655,77 48.3333,77.5 47.6150,78 46.9107,78.5 46.2206,79 45.5448,79.5 44.8835,80 44.2367,80.5 43.6046,81 42.9874,81.5 42.3850,82 41.7976,82.5 41.2252,83 40.6680,83.5 40.1260,84 39.5993,84.5 39.0879,85 38.5920,85.5 38.1115,86 37.6464,86.5 37.1970,87 36.7630,87.5 36.3447,88 35.9421,88.5 35.5551,89 35.1838,89.5 34.8282,90 34.4883,90.5 34.1642,91 33.8558,91.5 33.5632,92 33.2864,92.5 33.0254,93 32.7802,93.5 32.5508,94 32.3372,94.5 32.1394,95 31.9574,95.5 31.7913,96 31.6409,96.5 31.5064,97 31.3877,97.5 31.2849,98 31.1978,98.5 31.1266,99 31.0712,99.5 31.0317,100 31.0079,100.5 31.0000,101 31.0079,101.5 31.0317,102 31.0712,102.5 31.1266,103 31.1978,103.5 31.2849,104 31.3877,104.5 31.5064,105 31.6409,105.5 31.7913,106 31.9574,106.5 32.1394,107 32.3372,107.5 32.5508,108 32.7802,108.5 33.0254,109 33.2864,109.5 33.5632,110 33.8558,110.5 34.1642,111 34.4883,111.5 34.8282,112 35.1838,112.5 35.5551,113 35.9421,113.5 36.3447,114 36.7630,114.5 37.1970,115 37.6464,115.5 38.1115,116 38.5920,116.5 39.0879,117 39.5993,117.5 40.1260,118 40.6680,118.5 41.2252,119 41.7976,119.5 42.3850,120 42.9874,120.5 43.6046,121 44.2367,121.5 44.8835,122 45.5448,122.5 46.2206,123 46.9107,123.5 47.6150,124 48.3333,124.5 49.0655,125 49.8114,125.5 50.5709,126 51.3436,126.5 52.1296,127 52.9285,127.5 53.7401,128 54.5642,128.5 55.4005,129 56.2488,129.5 57.1089,130 57.9804,130.5 58.8631,131 59.7566,131.5 60.6607,132 61.5749,132.5 62.4991,133 63.4327,133.5 64.3755,134 65.3270,134.5 66.2869,135 67.2548,135.5 68.2302,136 69.2127,136.5 70.2018,137 71.1971,137.5 72.1982,138 73.2045,138.5 74.2156,139 75.2308,139.5 76.2499,140 77.2721,140.5 78.2969,141 79.3239,141.5 80.3525,142 81.3820,142.5 82.4120,143 83.4418,143.5 84.4709,144 85.4986,144.5 86.5245,145 87.5479,145.5 88.5681,146 89.5847,146.5 90.5969,147 91.6043,147.5 92.6061,148 93.6019,148.5 94.5910,149 95.5729,149.5 96.5469,150 97.5125,150.5 98.4691,151 99.4163,151.5 100.3533,152 101.2798,152.5 102.1952,153 103.0989,153.5 103.9906,154 104.8697,154.5 105.7358,155 106.5885,155.5 107.4273,156 108.2518,156.5 109.0618,157 109.8567,157.5 110.6364,158 111.4004,158.5 112.1486,159 112.8806,159.5 113.5963,160 114.2954,160.5 114.9778,161 115.6433,161.5 116.2917,162 116.9230,162.5 117.5372,163 118.1341,163.5 118.7138,164 119.2762,164.5 119.8214,165 120.3495,165.5 120.8605,166 121.3545,166.5 121.8317,167 122.2922,167.5 122.7362,168 123.1639,168.5 123.5755,169 123.9712,169.5 124.3513,170 124.7161,170.5 125.0658,171 125.4007,171.5 125.7212,172 126.0276,172.5 126.3202,173 126.5993,173.5 126.8654,174 127.1187,174.5 127.3597,175 127.5887,175.5 127.8061,176 128.0122,176.5 128.2076,177 128.3924,177.5 128.5672,178 128.7323,178.5 128.8881,179 129.0349,179.5 129.1732,180 129.3033,180.5 129.4255,181 129.5402,181.5 129.6478,182 129.7486,182.5 129.8430,183 129.9312,183.5 130.0135,184 130.0903,184.5 130.1620,185 130.2286,185.5 130.2906,186 130.3482,186.5 130.4017,187 130.4513,187.5 130.4972,188 130.5397,188.5 130.5790,189 130.6153,189.5 130.6487,190 130.6795,190.5 130.7079,191 130.7340,191.5 130.7580,192 130.7800,192.5 130.8002,193 130.8187,193.5 130.8356,194 130.8511,194.5 130.8652,195 130.8781,195.5 130.8899,196 130.9006,196.5 130.9103,197 130.9192,197.5 130.9272,198 130.9345,198.5 130.9411,199 130.9471,199.5 130.9525,200 130.9574,201 130.9618,202 131"/>
    <text class="t" x="112" y="140">t</text>
	</g>
</svg>